<svg width="26" height="26" viewBox="0 0 26 26" fill="none" xmlns="http://www.w3.org/2000/svg">
<path id="Vector" fill-rule="evenodd" clip-rule="evenodd" d="M23.2054 17.651C23.2054 20.364 21.0054 22.564 18.2924 22.564H8.22635C6.92325 22.564 5.67351 22.0464 4.75198 21.1251C3.83046 20.2038 3.31262 18.9541 3.31235 17.651V7.58502C3.31235 4.87102 5.51235 2.67102 8.22635 2.67102H18.2924C21.0054 2.67102 23.2054 4.87102 23.2054 7.58502V17.651ZM18.2924 0.166016C22.3824 0.166016 25.7113 3.49402 25.7113 7.58502V17.651C25.7113 21.741 22.3823 25.07 18.2913 25.07H8.22735C4.13735 25.07 0.80835 21.741 0.80835 17.65V7.58602C0.80735 3.49402 4.13535 0.166016 8.22635 0.166016H18.2924ZM13.2593 16.554C12.7425 16.554 12.2306 16.4522 11.7531 16.2544C11.2756 16.0566 10.8417 15.7667 10.4762 15.4012C10.1107 15.0357 9.82076 14.6018 9.62296 14.1243C9.42516 13.6467 9.32335 13.1349 9.32335 12.618C9.32335 12.1011 9.42516 11.5893 9.62296 11.1118C9.82076 10.6342 10.1107 10.2003 10.4762 9.83484C10.8417 9.46935 11.2756 9.17943 11.7531 8.98163C12.2306 8.78382 12.7425 8.68202 13.2593 8.68202C14.3032 8.68202 15.3044 9.0967 16.0425 9.83484C16.7807 10.573 17.1954 11.5741 17.1954 12.618C17.1954 13.6619 16.7807 14.663 16.0425 15.4012C15.3044 16.1393 14.3032 16.554 13.2593 16.554ZM13.2593 6.17702C11.5519 6.17913 9.915 6.85828 8.70757 8.06553C7.50013 9.27277 6.82073 10.9096 6.81835 12.617C6.81835 16.169 9.70835 19.059 13.2584 19.059C16.8114 19.059 19.7003 16.169 19.7003 12.618C19.7003 9.06602 16.8103 6.17702 13.2593 6.17702ZM19.7124 4.68202C19.5097 4.68202 19.3091 4.72193 19.1219 4.79947C18.9347 4.87701 18.7646 4.99067 18.6213 5.13395C18.478 5.27723 18.3643 5.44733 18.2868 5.63454C18.2093 5.82174 18.1693 6.02239 18.1693 6.22502C18.1693 6.42765 18.2093 6.62829 18.2868 6.8155C18.3643 7.0027 18.478 7.1728 18.6213 7.31608C18.7646 7.45936 18.9347 7.57302 19.1219 7.65056C19.3091 7.7281 19.5097 7.76802 19.7124 7.76802C20.1216 7.76802 20.514 7.60545 20.8034 7.31608C21.0928 7.02671 21.2554 6.63424 21.2554 6.22502C21.2554 5.81579 21.0928 5.42332 20.8034 5.13395C20.514 4.84458 20.1216 4.68202 19.7124 4.68202Z" fill="white"/>
</svg>
