<svg width="13" height="23" viewBox="0 0 13 23" fill="none" xmlns="http://www.w3.org/2000/svg">
<path id="Vector" fill-rule="evenodd" clip-rule="evenodd" d="M11.9114 0.171016L8.9654 0.166016C5.6534 0.166016 3.5144 2.36202 3.5144 5.76002V8.33702H0.550402C0.427424 8.33754 0.309662 8.38677 0.22289 8.47392C0.136118 8.56106 0.0874012 8.67904 0.0874023 8.80202L0.0874023 12.537C0.0874023 12.794 0.295402 13 0.550402 13H3.5144V22.429C3.5144 22.685 3.7224 22.892 3.9774 22.892H7.8434C8.0994 22.892 8.3064 22.683 8.3064 22.429V13H11.7714C11.8323 13.0001 11.8926 12.9883 11.9489 12.9651C12.0052 12.9419 12.0563 12.9078 12.0994 12.8648C12.1425 12.8218 12.1767 12.7707 12.2001 12.7144C12.2234 12.6582 12.2354 12.5979 12.2354 12.537L12.2364 8.80202C12.2368 8.74101 12.2251 8.68053 12.202 8.62406C12.1789 8.5676 12.1448 8.51627 12.1018 8.47304C12.0588 8.4298 12.0076 8.39553 11.9512 8.37218C11.8948 8.34883 11.8344 8.33688 11.7734 8.33702H8.3064V6.15102C8.3064 5.10102 8.5564 4.56802 9.9264 4.56802H11.9114C11.9723 4.56802 12.0326 4.55601 12.0888 4.53268C12.1451 4.50935 12.1961 4.47515 12.2391 4.43205C12.2822 4.38895 12.3162 4.33779 12.3394 4.28151C12.3627 4.22522 12.3745 4.1649 12.3744 4.10402V0.634016C12.3741 0.511302 12.3253 0.393689 12.2385 0.306917C12.1517 0.220145 12.0341 0.17128 11.9114 0.171016Z" fill="white"/>
</svg>
