<svg width="26" height="23" viewBox="0 0 26 23" fill="none" xmlns="http://www.w3.org/2000/svg">
<path id="Vector" d="M0.828043 10.7152L6.81804 12.8882L9.13704 20.1352C9.28504 20.6002 9.86904 20.7712 10.257 20.4632L13.597 17.8172C13.7691 17.6823 13.98 17.6063 14.1986 17.6004C14.4172 17.5944 14.6319 17.6589 14.811 17.7842L20.834 22.0342C21.249 22.3272 21.836 22.1062 21.94 21.6192L26.353 0.993243C26.466 0.461243 25.928 0.0172433 25.407 0.213243L0.820043 9.43124C0.686781 9.47836 0.571512 9.56582 0.490265 9.68149C0.409019 9.79715 0.365832 9.93525 0.366712 10.0766C0.367592 10.2179 0.412495 10.3555 0.495175 10.4701C0.577856 10.5848 0.694205 10.6708 0.828043 10.7162V10.7152ZM8.76304 11.7312L20.472 4.72324C20.682 4.59724 20.899 4.87324 20.718 5.03724L11.055 13.7662C10.7179 14.0697 10.4984 14.4821 10.435 14.9312L10.105 17.3012C10.062 17.6182 9.60504 17.6492 9.51504 17.3432L8.24804 13.0202C8.17844 12.7787 8.19128 12.5209 8.28454 12.2874C8.3778 12.054 8.54617 11.8583 8.76304 11.7312Z" fill="white"/>
</svg>
