<svg width="26" height="26" viewBox="0 0 26 26" fill="none" xmlns="http://www.w3.org/2000/svg">
<g id="vk.svg" clip-path="url(#clip0_1_997)">
<g id="Group">
<g id="Group_2">
<path id="Vector" d="M25.4476 18.366C25.3476 18.266 24.9476 17.366 22.9476 15.466C20.8476 13.566 21.1476 13.866 23.6476 10.466C25.1476 8.46602 25.8476 7.16602 25.6476 6.66602C25.4476 6.16602 24.3476 6.26602 24.3476 6.26602H20.5476C20.5476 6.26602 20.2476 6.26602 20.0476 6.36602C19.8476 6.46602 19.7476 6.76602 19.7476 6.76602C19.7476 6.76602 19.1476 8.36602 18.3476 9.66602C16.6476 12.466 16.0476 12.666 15.7476 12.466C15.1476 12.066 15.2476 10.766 15.2476 9.96602C15.2476 7.16602 15.6476 6.06602 14.4476 5.76602C14.0476 5.76602 13.7476 5.66602 12.6476 5.66602C11.3476 5.66602 10.1476 5.66602 9.54758 5.96602C9.14758 6.16602 8.74758 6.66602 8.94758 6.66602C9.14758 6.66602 9.74758 6.86602 10.0476 7.26602C10.4476 7.76602 10.4476 8.96602 10.4476 8.96602C10.4476 8.96602 10.6476 12.166 9.94758 12.566C9.44758 12.866 8.74758 12.266 7.24758 9.76602C6.54758 8.36602 5.94758 6.96602 5.94758 6.96602C5.94758 6.96602 5.84758 6.66602 5.64758 6.56602C5.34758 6.36602 5.04758 6.26602 5.04758 6.26602H1.44758C1.44758 6.26602 0.94758 6.26602 0.74758 6.46602C0.54758 6.66602 0.74758 7.06602 0.74758 7.06602C0.74758 7.06602 3.54758 13.566 6.74758 16.866C9.64758 19.866 12.9476 19.666 12.9476 19.666H14.4476C14.4476 19.666 14.9476 19.566 15.1476 19.366C15.3476 19.166 15.3476 18.666 15.3476 18.666C15.3476 18.666 15.3476 16.666 16.2476 16.366C17.1476 16.066 18.3476 18.266 19.5476 19.166C20.4476 19.766 21.2476 19.666 21.2476 19.666H24.5476C24.5476 19.866 26.2476 19.766 25.4476 18.366Z" fill="white"/>
</g>
</g>
</g>
<defs>
<clipPath id="clip0_1_997">
<rect width="25" height="25" fill="white" transform="translate(0.647461 0.166016)"/>
</clipPath>
</defs>
</svg>
