<svg width="26" height="26" viewBox="0 0 26 26" fill="none" xmlns="http://www.w3.org/2000/svg">
<path id="Vector" fill-rule="evenodd" clip-rule="evenodd" d="M22.2773 3.76602C19.8773 1.46602 16.7773 0.166016 13.4773 0.166016C6.67729 0.166016 1.07729 5.76602 1.07729 12.566C1.07729 14.766 1.67729 16.866 2.77729 18.766L0.977295 25.166L7.57729 23.466C9.37729 24.466 11.3773 24.966 13.4773 24.966C20.2773 24.966 25.8773 19.366 25.8773 12.566C25.8773 9.26602 24.5773 6.16602 22.2773 3.76602ZM13.4773 22.866C11.5773 22.866 9.7773 22.366 8.2773 21.466L7.8773 21.166L3.97729 22.166L4.97729 18.366L4.77729 17.966C3.77729 16.366 3.17729 14.466 3.17729 12.466C3.17729 6.76602 7.7773 2.16602 13.4773 2.16602C16.1773 2.16602 18.7773 3.26602 20.7773 5.16602C22.7773 7.06602 23.7773 9.66602 23.7773 12.466C23.7773 18.266 19.1773 22.866 13.4773 22.866ZM19.0773 15.166C18.7773 14.966 17.2773 14.266 16.9773 14.166C16.6773 14.066 16.4773 13.966 16.2773 14.366C16.0773 14.666 15.4773 15.366 15.2773 15.566C15.0773 15.766 14.8773 15.766 14.5773 15.666C14.2773 15.466 13.2773 15.166 12.0773 14.166C11.1773 13.366 10.5773 12.366 10.3773 12.066C10.1773 11.766 10.3773 11.566 10.4773 11.466C10.7773 11.066 11.1773 10.566 11.2773 10.366C11.3773 10.166 11.3773 9.96602 11.2773 9.86602C11.1773 9.76602 10.5773 8.16602 10.2773 7.56602C10.0773 6.76602 9.87729 6.86602 9.67729 6.86602C9.47729 6.86602 9.2773 6.86602 9.0773 6.86602C8.8773 6.86602 8.5773 6.86602 8.2773 7.16602C7.9773 7.56602 7.17729 8.26602 7.17729 9.76602C7.17729 11.266 8.27729 12.766 8.47729 12.966C8.67729 13.166 10.6773 16.266 13.7773 17.666C14.4773 17.966 15.0773 18.166 15.5773 18.366C16.2773 18.566 16.9773 18.566 17.5773 18.466C18.1773 18.366 19.3773 17.666 19.6773 16.966C19.9773 16.266 19.9773 15.666 19.8773 15.466C19.6773 15.366 19.3773 15.266 19.0773 15.166Z" fill="white"/>
</svg>
