<svg width="454" height="441" viewBox="0 0 454 441" fill="none" xmlns="http://www.w3.org/2000/svg">
<path d="M454 396.614H431.621V396.91H454V396.614Z" fill="#EBEBEB"/>
<path d="M319.948 394.549H285.034V394.846H319.948V394.549Z" fill="#EBEBEB"/>
<path d="M430.436 385.602H374.623V385.898H430.436V385.602Z" fill="#EBEBEB"/>
<path d="M12.9965 387.595H0V387.892H12.9965V387.595Z" fill="#EBEBEB"/>
<path d="M69.2237 387.595H23.5406V387.892H69.2237V387.595Z" fill="#EBEBEB"/>
<path d="M204.591 392.603H140.438V392.9H204.591V392.603Z" fill="#EBEBEB"/>
<path d="M454 396.614H431.621V396.91H454V396.614Z" fill="#EBEBEB"/>
<path d="M319.948 394.549H285.034V394.846H319.948V394.549Z" fill="#EBEBEB"/>
<path d="M430.436 385.602H374.623V385.898H430.436V385.602Z" fill="#EBEBEB"/>
<path d="M12.9965 387.595H0V387.892H12.9965V387.595Z" fill="#EBEBEB"/>
<path d="M69.2237 387.595H23.5406V387.892H69.2237V387.595Z" fill="#EBEBEB"/>
<path d="M204.591 392.603H140.438V392.9H204.591V392.603Z" fill="#EBEBEB"/>
<path d="M435.448 379.201C439.853 379.201 443.424 375.624 443.424 371.212C443.424 366.8 439.853 363.224 435.448 363.224C431.044 363.224 427.473 366.8 427.473 371.212C427.473 375.624 431.044 379.201 435.448 379.201Z" fill="#E0E0E0"/>
<path d="M427.474 379.201C431.879 379.201 435.45 375.624 435.45 371.212C435.45 366.8 431.879 363.224 427.474 363.224C423.069 363.224 419.498 366.8 419.498 371.212C419.498 375.624 423.069 379.201 427.474 379.201Z" fill="#EBEBEB"/>
<path d="M328.454 379.201C332.859 379.201 336.43 375.624 336.43 371.212C336.43 366.8 332.859 363.224 328.454 363.224C324.049 363.224 320.479 366.8 320.479 371.212C320.479 375.624 324.049 379.201 328.454 379.201Z" fill="#E0E0E0"/>
<path d="M434.674 187.58H300.236V364.834H434.674V187.58Z" fill="#EBEBEB"/>
<path d="M443.424 187.58H326.302V364.834H443.424V187.58Z" fill="#F5F5F5"/>
<path d="M433.774 196.752H336.894V355.858H433.774V196.752Z" stroke="#E0E0E0" stroke-width="2" stroke-miterlimit="10"/>
<path d="M336.894 247.434H434.675" stroke="#E0E0E0" stroke-width="2" stroke-miterlimit="10"/>
<path d="M336.894 302.777H434.675" stroke="#E0E0E0" stroke-width="2" stroke-miterlimit="10"/>
<path d="M406.069 203.415H370.086V207.713H406.069V203.415Z" fill="#FAFAFA"/>
<path d="M406.069 254.376H370.086V258.674H406.069V254.376Z" fill="#FAFAFA"/>
<path d="M406.069 311.486H370.086V315.784H406.069V311.486Z" fill="#FAFAFA"/>
<path d="M320.479 379.201C324.883 379.201 328.454 375.624 328.454 371.212C328.454 366.8 324.883 363.224 320.479 363.224C316.074 363.224 312.503 366.8 312.503 371.212C312.503 375.624 316.074 379.201 320.479 379.201Z" fill="#EBEBEB"/>
<path d="M298.078 14.9805H53.7689V183.824H298.078V14.9805Z" fill="#EBEBEB"/>
<path d="M302.842 14.9805H298.09V183.824H302.842V14.9805Z" fill="#E0E0E0"/>
<path d="M293.124 31.9976H60.5408V175.453H293.124V31.9976Z" fill="#F5F5F5"/>
<path d="M173.246 175.453H152.187L91.5902 31.7778H112.65L173.246 175.453Z" fill="#FAFAFA"/>
<path d="M220.306 175.453H182.146L121.55 31.7778H159.722L220.306 175.453Z" fill="#FAFAFA"/>
<path d="M276.919 175.504H255.859L195.274 31.8286H216.322L276.919 175.504Z" fill="#FAFAFA"/>
<path opacity="0.3" d="M302.84 6.34766H53.7689V76.8715H302.84V6.34766Z" fill="#E0E0E0" stroke="#F0F0F0" stroke-miterlimit="10"/>
<path d="M302.132 62.1592H53.7689V64.3426H302.132V62.1592Z" fill="#FAFAFA"/>
<path d="M302.132 52.0547H53.7689V54.2382H302.132V52.0547Z" fill="#FAFAFA"/>
<path d="M302.132 41.9502H53.7689V44.1337H302.132V41.9502Z" fill="#FAFAFA"/>
<path d="M302.132 31.8457H53.7689V34.0292H302.132V31.8457Z" fill="#FAFAFA"/>
<path d="M302.132 21.7412H53.7689V23.9247H302.132V21.7412Z" fill="#FAFAFA"/>
<path d="M307.444 3.31689H50.8249V6.28357H307.444V3.31689Z" fill="#E0E0E0"/>
<path d="M49.0549 9.60017C50.9615 9.60017 52.5072 7.4511 52.5072 4.80008C52.5072 2.14907 50.9615 0 49.0549 0C47.1482 0 45.6026 2.14907 45.6026 4.80008C45.6026 7.4511 47.1482 9.60017 49.0549 9.60017Z" fill="#E0E0E0"/>
<path d="M307.443 9.60017C309.35 9.60017 310.895 7.4511 310.895 4.80008C310.895 2.14907 309.35 0 307.443 0C305.536 0 303.991 2.14907 303.991 4.80008C303.991 7.4511 305.536 9.60017 307.443 9.60017Z" fill="#E0E0E0"/>
<path d="M228.522 441C332.841 441 417.407 434.382 417.407 426.219C417.407 418.055 332.841 411.438 228.522 411.438C124.204 411.438 39.6375 418.055 39.6375 426.219C39.6375 434.382 124.204 441 228.522 441Z" fill="#F5F5F5"/>
<path d="M408.085 95.9461L382.836 174.842C381.57 178.796 376.551 179.967 373.671 176.98L360.551 163.37C358.493 161.236 355.114 161.125 352.921 163.119L243.295 262.817C241.271 264.657 238.203 264.724 236.102 262.972L166.541 204.985C164.459 203.25 161.424 203.296 159.397 205.096L22.6674 326.469L27.8518 277.877C27.9975 276.516 28.6444 275.258 29.6668 274.35L158.698 159.819C160.725 158.02 163.76 157.972 165.842 159.708L235.117 217.464C237.217 219.215 240.286 219.149 242.309 217.309L328.841 138.628C331.132 136.546 331.249 132.977 329.1 130.748L316.131 117.292C313.171 114.222 314.687 109.091 318.838 108.128L401.629 88.9198C405.772 87.9574 409.383 91.8877 408.085 95.9461Z" fill="#71B219"/>
<path opacity="0.1" d="M408.043 96.0797L382.875 174.717C381.591 178.725 376.501 179.919 373.576 176.886L360.603 163.428C358.519 161.266 355.083 161.144 352.864 163.168L243.349 262.765C242.229 263.782 240.808 264.265 239.391 264.202C238.203 264.175 237.025 263.748 236.044 262.93L166.599 205.024C165.638 204.23 164.47 203.804 163.296 203.757C161.891 203.685 160.462 204.145 159.344 205.139L22.6674 326.468L28.0781 275.762L158.647 159.863C159.803 158.828 161.287 158.374 162.744 158.485C163.871 158.561 164.982 158.992 165.901 159.76L195.408 184.36L235.061 217.424C236.133 218.319 237.447 218.737 238.753 218.7C240.057 218.672 241.345 218.186 242.366 217.259L328.777 138.681C331.104 136.568 331.224 132.947 329.04 130.685L316.227 117.401C313.222 114.282 314.767 109.075 318.978 108.099L401.484 88.9478C405.693 87.9711 409.362 91.9631 408.043 96.0797Z" fill="black"/>
<path d="M265.198 391.962H164.131V414.939H265.198V391.962Z" fill="#71B219"/>
<path opacity="0.2" d="M176.926 391.962H174.192V414.939H176.926V391.962Z" fill="black"/>
<path opacity="0.2" d="M190.984 391.962H188.25V414.939H190.984V391.962Z" fill="black"/>
<path opacity="0.2" d="M205.042 414.939H202.308V391.962L205.042 392.369V414.939Z" fill="black"/>
<path opacity="0.2" d="M219.101 391.962H216.367V414.939H219.101V391.962Z" fill="black"/>
<path opacity="0.2" d="M233.159 391.962H230.425V414.939H233.159V391.962Z" fill="black"/>
<path opacity="0.2" d="M247.217 391.962H244.483V414.939H247.217V391.962Z" fill="black"/>
<path opacity="0.2" d="M261.275 391.962H258.541V414.939H261.275V391.962Z" fill="black"/>
<path opacity="0.09" d="M265.198 391.962H164.131V396.694H265.198V391.962Z" fill="black"/>
<path d="M280.959 368.984H179.892V391.962H280.959V368.984Z" fill="#71B219"/>
<path opacity="0.2" d="M192.686 368.984H189.951V391.962H192.686V368.984Z" fill="black"/>
<path opacity="0.2" d="M206.743 368.984H204.009V391.962H206.743V368.984Z" fill="black"/>
<path opacity="0.2" d="M220.803 368.984H218.068V391.962H220.803V368.984Z" fill="black"/>
<path opacity="0.2" d="M234.861 368.984H232.126V391.962H234.861V368.984Z" fill="black"/>
<path opacity="0.2" d="M248.919 368.984H246.184V391.962H248.919V368.984Z" fill="black"/>
<path opacity="0.2" d="M262.977 368.984H260.242V391.962H262.977V368.984Z" fill="black"/>
<path opacity="0.2" d="M277.036 368.984H274.302V391.962H277.036V368.984Z" fill="black"/>
<path opacity="0.09" d="M280.959 368.984H179.892V373.717H280.959V368.984Z" fill="black"/>
<path d="M266.899 346.007H165.832V368.984H266.899V346.007Z" fill="#71B219"/>
<path opacity="0.2" d="M178.628 346.007H175.893V368.984H178.628V346.007Z" fill="black"/>
<path opacity="0.2" d="M192.686 368.984H189.951V346.025L192.686 346.007V368.984Z" fill="black"/>
<path opacity="0.2" d="M206.743 346.007H204.009V368.984H206.743V346.007Z" fill="black"/>
<path opacity="0.2" d="M220.803 346.007H218.068V368.984H220.803V346.007Z" fill="black"/>
<path opacity="0.2" d="M234.861 368.984H232.126V346.007L234.861 346.025V368.984Z" fill="black"/>
<path opacity="0.2" d="M248.919 346.007H246.184V368.984H248.919V346.007Z" fill="black"/>
<path opacity="0.2" d="M262.977 346.007H260.242V368.984H262.977V346.007Z" fill="black"/>
<path opacity="0.09" d="M266.899 346.007H165.832V351.664H266.899V346.007Z" fill="black"/>
<path d="M280.959 323.047H179.892V346.025H280.959V323.047Z" fill="#71B219"/>
<path opacity="0.2" d="M192.686 323.047H189.951V346.025H192.686V323.047Z" fill="black"/>
<path opacity="0.2" d="M206.743 323.047H204.009V346.025H206.743V323.047Z" fill="black"/>
<path opacity="0.2" d="M220.803 323.047H218.068V346.025H220.803V323.047Z" fill="black"/>
<path opacity="0.2" d="M234.861 323.047H232.126V346.025H234.861V323.047Z" fill="black"/>
<path opacity="0.2" d="M248.919 323.047H246.184V346.025H248.919V323.047Z" fill="black"/>
<path opacity="0.2" d="M262.977 346.007L260.242 346.025V323.047L262.977 323.454V346.007Z" fill="black"/>
<path opacity="0.2" d="M277.036 323.047H274.302V346.025H277.036V323.047Z" fill="black"/>
<path opacity="0.09" d="M280.959 323.047H179.892V327.78H280.959V323.047Z" fill="black"/>
<path d="M285.394 300.07H184.327V323.047H285.394V300.07Z" fill="#71B219"/>
<path opacity="0.2" d="M197.121 300.07H194.387V323.047H197.121V300.07Z" fill="black"/>
<path opacity="0.2" d="M211.18 300.07H208.446V323.047H211.18V300.07Z" fill="black"/>
<path opacity="0.2" d="M225.238 300.07H222.504V323.047H225.238V300.07Z" fill="black"/>
<path opacity="0.2" d="M239.296 300.07H236.562V323.047H239.296V300.07Z" fill="black"/>
<path opacity="0.2" d="M253.354 300.07H250.62V323.047H253.354V300.07Z" fill="black"/>
<path opacity="0.2" d="M267.413 300.07H264.679V323.047H267.413V300.07Z" fill="black"/>
<path opacity="0.2" d="M281.471 300.07H278.737V323.047H281.471V300.07Z" fill="black"/>
<path opacity="0.09" d="M285.394 300.07H184.327V304.802H285.394V300.07Z" fill="black"/>
<path d="M273.371 277.097H172.305V300.075H273.371V277.097Z" fill="#71B219"/>
<path opacity="0.2" d="M185.098 277.097H182.364V300.075H185.098V277.097Z" fill="black"/>
<path opacity="0.2" d="M199.158 277.097H196.423V300.075H199.158V277.097Z" fill="black"/>
<path opacity="0.2" d="M213.216 277.097H210.481V300.075H213.216V277.097Z" fill="black"/>
<path opacity="0.2" d="M227.274 277.097H224.539V300.075H227.274V277.097Z" fill="black"/>
<path opacity="0.2" d="M241.332 277.097H238.597V300.075H241.332V277.097Z" fill="black"/>
<path opacity="0.2" d="M255.39 277.102H252.655V300.075H255.39V277.102Z" fill="black"/>
<path opacity="0.2" d="M269.449 277.097H266.714V300.075H269.449V277.097Z" fill="black"/>
<path opacity="0.09" d="M273.371 277.097H172.305V281.83H273.371V277.097Z" fill="black"/>
<path d="M138.825 392.306H37.7585V415.284H138.825V392.306Z" fill="#71B219"/>
<path opacity="0.2" d="M50.5536 392.306H47.8192V415.284H50.5536V392.306Z" fill="black"/>
<path opacity="0.2" d="M64.6115 392.306H61.8772V415.284H64.6115V392.306Z" fill="black"/>
<path opacity="0.2" d="M78.6695 392.306H75.9352V415.284H78.6695V392.306Z" fill="black"/>
<path opacity="0.2" d="M92.7275 392.306H89.9932V415.284H92.7275V392.306Z" fill="black"/>
<path opacity="0.2" d="M106.787 392.306H104.052V415.284H106.787V392.306Z" fill="black"/>
<path opacity="0.2" d="M120.845 392.306H118.11V415.284H120.845V392.306Z" fill="black"/>
<path opacity="0.2" d="M134.903 392.306H132.168V415.284H134.903V392.306Z" fill="black"/>
<path opacity="0.09" d="M138.825 392.306H37.7585V397.039H138.825V392.306Z" fill="black"/>
<path d="M143.596 369.33H42.5294V392.308H143.596V369.33Z" fill="#71B219"/>
<path opacity="0.2" d="M55.3232 369.33H52.5889V392.308H55.3232V369.33Z" fill="black"/>
<path opacity="0.2" d="M69.3813 369.33H66.6469V392.308H69.3813V369.33Z" fill="black"/>
<path opacity="0.2" d="M83.4392 369.33H80.7049V392.308H83.4392V369.33Z" fill="black"/>
<path opacity="0.2" d="M97.4984 369.33H94.7641V392.308H97.4984V369.33Z" fill="black"/>
<path opacity="0.2" d="M111.556 369.33H108.822V392.308H111.556V369.33Z" fill="black"/>
<path opacity="0.2" d="M125.614 369.33H122.88V392.308H125.614V369.33Z" fill="black"/>
<path opacity="0.2" d="M139.672 369.33H136.938V392.308H139.672V369.33Z" fill="black"/>
<path opacity="0.09" d="M143.596 369.33H42.5294V373.657H143.596V369.33Z" fill="black"/>
<path d="M137.404 346.353H36.3368V369.33H137.404V346.353Z" fill="#71B219"/>
<path opacity="0.2" d="M49.1307 346.353H46.3964V369.33H49.1307V346.353Z" fill="black"/>
<path opacity="0.2" d="M63.1899 346.353H60.4555V369.33H63.1899V346.353Z" fill="black"/>
<path opacity="0.2" d="M77.2479 346.353H74.5135V369.33H77.2479V346.353Z" fill="black"/>
<path opacity="0.2" d="M91.3059 346.353H88.5715V369.33H91.3059V346.353Z" fill="black"/>
<path opacity="0.2" d="M105.364 346.353H102.63V369.33H105.364V346.353Z" fill="black"/>
<path opacity="0.2" d="M119.423 346.353H116.689V369.33H119.423V346.353Z" fill="black"/>
<path opacity="0.2" d="M133.481 346.353H130.747V369.33H133.481V346.353Z" fill="black"/>
<path opacity="0.09" d="M137.404 346.353H36.3368V350.679H137.404V346.353Z" fill="black"/>
<path d="M359.424 334.825H337.276V415.895H359.424V334.825Z" fill="#71B219"/>
<g opacity="0.4">
<path opacity="0.4" d="M359.424 356.4V372.889L337.276 395.063V377.333L359.424 356.4Z" fill="white"/>
<path opacity="0.4" d="M359.424 344.345V347.148L337.276 369.332V366.54L359.424 344.345Z" fill="white"/>
</g>
<path d="M386.688 360.944H364.54V415.895H386.688V360.944Z" fill="#71B219"/>
<g opacity="0.4">
<path opacity="0.4" d="M386.688 377.145V393.457L364.54 415.629V398.088L386.688 377.145Z" fill="white"/>
<path opacity="0.4" d="M386.688 369.454V372.59L364.54 394.775V391.628L386.688 369.454Z" fill="white"/>
</g>
<path d="M332.159 295.864H310.01V415.895H332.159V295.864Z" fill="#71B219"/>
<g opacity="0.4">
<path opacity="0.4" d="M332.159 318.402V334.802L310.01 356.986V339.345L332.159 318.402Z" fill="white"/>
<path opacity="0.4" d="M332.159 309.382V312.452L310.01 334.647V331.567L332.159 309.382Z" fill="white"/>
</g>
<path d="M321.085 307.395C322.835 307.395 324.253 305.974 324.253 304.222C324.253 302.469 322.835 301.049 321.085 301.049C319.336 301.049 317.917 302.469 317.917 304.222C317.917 305.974 319.336 307.395 321.085 307.395Z" fill="#263238"/>
<path d="M348.349 345.937C350.099 345.937 351.517 344.516 351.517 342.764C351.517 341.011 350.099 339.591 348.349 339.591C346.6 339.591 345.181 341.011 345.181 342.764C345.181 344.516 346.6 345.937 348.349 345.937Z" fill="#263238"/>
<path d="M375.615 372.028C377.364 372.028 378.783 370.608 378.783 368.855C378.783 367.103 377.364 365.682 375.615 365.682C373.865 365.682 372.447 367.103 372.447 368.855C372.447 370.608 373.865 372.028 375.615 372.028Z" fill="#263238"/>
<path d="M375.615 368.855L347.521 395.063L348.349 342.764L321.085 359.654V304.222" stroke="#263238" stroke-miterlimit="10"/>
<path d="M121.977 158.475C121.977 158.475 114.432 169.636 112.667 170.777C110.901 171.919 87.0776 167.397 75.3891 161.335L69.3363 153.715L60.2364 150.508L55.0058 160.909L62.222 165.665C62.222 165.665 66.8472 170.991 72.0173 169.517C72.0173 169.517 90.6389 181.688 103.956 184.801C117.274 187.914 120.419 184.304 124.317 181.135C128.216 177.965 138.56 162.872 138.56 162.872L121.977 158.475Z" fill="#B55B52"/>
<path d="M193.595 111.558C193.595 111.558 223.401 102.443 233.501 94.8781C233.501 94.8781 248.818 76.1109 251.369 56.0621L247.915 45.636L249.744 33.7183L261.091 36.2601C261.091 36.2601 267.063 48.7427 259.798 58.5209C259.798 58.5209 257.865 87.5706 245.548 102.71C233.232 117.85 194.833 127.979 194.833 127.979L193.595 111.558Z" fill="#B55B52"/>
<path d="M204.28 221.266L201.847 133.403L221.009 124.283L208.702 102.271C208.702 102.271 193.766 106.66 180.822 106.66C163.629 106.66 146.343 119.765 137.01 123.419C127.678 127.072 117.287 158.965 117.287 158.965L138.893 170.554L142.951 158.624C142.951 158.624 148.771 202.742 148.789 222.09L204.28 221.266Z" fill="#71B219"/>
<path opacity="0.1" d="M204.28 221.266L201.847 133.403L221.009 124.283L208.702 102.271C208.702 102.271 193.766 106.66 180.822 106.66C163.629 106.66 146.343 119.765 137.01 123.419C127.678 127.072 117.287 158.965 117.287 158.965L138.893 170.554L142.951 158.624C142.951 158.624 148.771 202.742 148.789 222.09L204.28 221.266Z" fill="white"/>
<path d="M160.523 98.6562C160.523 98.6562 145.55 100.22 142.848 88.299C142.848 88.299 133.908 84.7674 140.258 75.9125C140.258 75.9125 132.039 63.653 142.537 60.0064C142.537 60.0064 146.234 49.2231 158.956 46.0974C167.446 44.0124 165.041 48.5799 165.041 48.5799C165.041 48.5799 182.656 41.753 185.134 49.356C187.613 56.9578 173.947 60.3375 173.947 60.3375L160.523 98.6562Z" fill="#263238"/>
<path d="M169.884 96.4684C169.884 96.4684 169.923 97.3312 170.148 98.595C170.755 102.112 173.197 107.827 179.114 109.706C179.114 109.706 179.94 116.04 170.148 114.953C160.355 113.856 155.709 112.108 155.709 112.108C155.709 112.108 158.232 101.594 155.426 88.9236C155.426 88.9236 149.908 89.8539 146.788 86.6998C143.657 83.5349 144.792 75.5486 154.546 80.0758C154.546 80.0758 156.654 68.4369 149.81 64.9362C149.81 64.9362 163.217 66.8741 173.948 60.3379C173.948 60.3379 183.198 72.2165 181.897 83.5337C180.597 94.8522 169.884 96.4684 169.884 96.4684Z" fill="#B55B52"/>
<path d="M172.273 82.7504C172.273 82.7504 168.784 85.0264 164.814 81.7417" stroke="#263238" stroke-width="0.7223" stroke-miterlimit="10" stroke-linecap="round" stroke-linejoin="round"/>
<path d="M164.663 71.1585C164.13 71.2897 163.871 72.0993 164.084 72.9666C164.298 73.834 164.902 74.4308 165.434 74.2996C165.967 74.1684 166.226 73.3589 166.012 72.4915C165.799 71.6241 165.195 71.0273 164.663 71.1585Z" fill="#263238"/>
<path d="M174.022 67.6883C173.489 67.8195 173.23 68.629 173.444 69.4964C173.657 70.3638 174.261 70.9606 174.793 70.8294C175.326 70.6982 175.585 69.8887 175.372 69.0213C175.158 68.1539 174.554 67.5571 174.022 67.6883Z" fill="#263238"/>
<path d="M163.512 66.665C163.512 66.665 161.101 67.1005 160.521 70.2061" stroke="#263238" stroke-width="0.9631" stroke-miterlimit="10" stroke-linecap="round" stroke-linejoin="round"/>
<path d="M176.153 63.6534C176.153 63.6534 174.054 62.074 172.194 63.4232" stroke="#263238" stroke-width="0.9631" stroke-miterlimit="10" stroke-linecap="round" stroke-linejoin="round"/>
<path d="M173.709 78.3416L171.499 71.0649L177.707 76.2412C177.706 76.2412 176.579 78.8851 173.709 78.3416Z" fill="#A02724"/>
<path opacity="0.19" d="M170.148 98.5948C166.764 98.997 165.042 97.3108 165.042 97.3108C166.862 97.1245 169.884 96.4683 169.884 96.4683C169.884 96.4683 169.923 97.331 170.148 98.5948Z" fill="black"/>
<path d="M175.406 115.079L175.354 126.45L169.785 126.963C169.785 126.963 165.53 122.783 165.257 120.592C164.983 118.4 171.381 112.678 175.406 115.079Z" fill="#263238"/>
<path d="M174.544 125.287C174.544 125.287 182.913 156.172 186.923 171.562L182.355 180.714L174.656 173.017L170.498 125.818L174.544 125.287Z" fill="#263238"/>
<path d="M212.802 404.942L195.839 407.617C195.839 407.617 190.605 342.691 189.275 318.34C189.05 314.137 188.62 309.649 188.071 305.092V305.083C185.449 283.231 180.068 259.861 180.068 259.861C180.068 259.861 178.308 298.85 173.455 328.746C168.602 358.642 148.039 402.266 148.039 402.266L131.908 394.819C144.518 358.7 147.404 313.715 148.499 296.89C149.595 280.075 148.359 210.854 148.359 210.854L203.923 208.427C209.293 234.629 216.272 294.519 217.036 315.204C217.791 335.901 212.802 404.942 212.802 404.942Z" fill="#263238"/>
<path d="M209.797 409.912L210.692 423.558L200.653 425.817L199.6 410.558L209.797 409.912Z" fill="#B55B52"/>
<path d="M215.503 402.745L194.021 406.907L195.07 413.586L215.096 409.944L215.503 402.745Z" fill="#71B219"/>
<path d="M144.584 404.153L138.657 416.805L129.119 413.109L135.482 399.924L144.584 404.153Z" fill="#B55B52"/>
<path d="M129.725 413.294L140.916 417.708C141.401 417.899 141.795 418.255 142.037 418.718C142.895 420.359 145.219 424.406 148.014 425.955C151.559 427.917 153.454 429.3 152.173 431.336C150.891 433.372 148.951 432.685 146.961 432.158C145.341 431.73 130.048 425.313 124.406 422.936C123.315 422.476 122.906 421.147 123.541 420.148L127.414 414.049C127.905 413.274 128.875 412.958 129.725 413.294Z" fill="#263238"/>
<path d="M200.448 425.297L212.25 422.976C212.762 422.875 213.284 422.963 213.737 423.221C215.342 424.141 219.477 426.296 222.665 426.091C226.706 425.831 229.047 425.972 229.064 428.38C229.079 430.788 227.076 431.255 225.115 431.887C223.52 432.399 207.184 435.247 201.153 436.29C199.987 436.492 198.928 435.594 198.924 434.408L198.905 427.179C198.903 426.263 199.551 425.473 200.448 425.297Z" fill="#263238"/>
<path d="M154.069 399.523L131.056 394.574L129.028 401.258L149.919 407.408L154.069 399.523Z" fill="#71B219"/>
<path opacity="0.61" d="M188.072 305.243C185.45 283.391 180.069 260.021 180.069 260.021L177.79 230.929C177.79 230.929 190.635 281.226 188.072 305.243Z" fill="black"/>
<path d="M156.298 108.61C156.298 108.61 162.949 113.349 170.148 114.953L166.47 125.707C166.47 125.707 157.544 121.607 153.017 117.891L156.298 108.61Z" fill="white"/>
<path d="M170.148 114.953L176.153 124.282C176.153 124.282 180.631 118.322 182.023 111.584L175.266 106.661C175.266 106.661 172.404 112.88 170.148 114.953Z" fill="white"/>
</svg>
