<svg width="62" height="62" viewBox="0 0 62 62" fill="none" xmlns="http://www.w3.org/2000/svg">
<path id="Vector" fill-rule="evenodd" clip-rule="evenodd" d="M45.9154 5.79154L48.7954 2.63354L60.1334 14.1625L56.9644 17.3475L45.9154 5.79154ZM55.0574 17.8185C54.2024 18.8275 52.2734 21.3585 52.8324 23.0625C53.0104 23.6125 53.0331 24.2009 52.898 24.7629C52.7628 25.3249 52.475 25.8387 52.0664 26.2475L46.6464 32.2355C46.1319 32.7703 45.4673 33.1364 44.7404 33.2855L44.3384 33.3665V31.4755C44.3334 29.1655 42.7184 27.1535 40.4944 26.6895L40.2264 26.6315V22.7745C40.2604 20.9915 38.9774 19.4945 37.2434 19.2825C36.6605 19.2341 36.0753 19.3436 35.5494 19.5995L35.1044 19.8155L35.0724 19.3155C34.9624 17.6705 33.7144 16.3385 32.1034 16.1475L31.3174 16.1105L35.8874 10.6895C36.4351 10.1294 37.1194 9.72178 37.8728 9.50679C38.6261 9.2918 39.4225 9.27689 40.1834 9.46354L43.1444 10.2175C43.2604 10.2455 43.3817 10.2432 43.4966 10.2108C43.6115 10.1784 43.7161 10.117 43.8004 10.0325L45.9494 7.84754L55.2574 17.5835L55.0574 17.8185ZM42.9524 47.2995C42.9467 48.0236 42.7745 48.7367 42.449 49.3835C42.1235 50.0303 41.6535 50.5935 41.0754 51.0295L39.0654 52.9115C38.9947 52.9776 38.9383 53.0575 38.8998 53.1463C38.8612 53.235 38.8414 53.3308 38.8414 53.4275V55.2805H24.8074V54.7225C24.8121 53.9136 24.5976 53.1186 24.1869 52.4217C23.7761 51.7248 23.1844 51.1522 22.4744 50.7645C21.9441 50.4864 21.499 50.07 21.1862 49.5595C20.8733 49.0489 20.7044 48.4633 20.6974 47.8645V37.7485C20.6994 36.2805 21.6164 34.9685 22.9754 34.4835L23.4224 34.3225V41.0065H24.8074V21.6925C24.7887 21.2076 24.9471 20.7324 25.2532 20.3557C25.5592 19.979 25.9919 19.7266 26.4704 19.6455C26.7363 19.6152 27.0056 19.6426 27.26 19.7258C27.5143 19.809 27.7478 19.946 27.9444 20.1275C28.3384 20.4855 28.5644 21.0035 28.5624 21.5455V36.8245H29.9474V19.4525C29.9474 18.3415 30.9034 17.4525 31.9984 17.5495C32.4891 17.6327 32.9327 17.8918 33.2463 18.2783C33.5599 18.6648 33.722 19.1522 33.7024 19.6495V36.8245H35.0874V22.5895C35.0874 21.4785 36.0464 20.5845 37.1384 20.6865C37.6282 20.7709 38.0707 21.03 38.3841 21.4158C38.6974 21.8016 38.8602 22.2879 38.8424 22.7845V36.8245H40.2274V28.0505L40.6744 28.2105C42.0344 28.6955 42.9504 30.0085 42.9544 31.4735V47.2995H42.9524ZM22.7524 60.5085H40.8974V56.6885H22.7524V60.5085ZM19.3954 36.8455L19.2754 37.4925L11.4914 29.3465C10.945 28.7794 10.5501 28.0838 10.3432 27.324C10.1363 26.5641 10.124 25.7644 10.3074 24.9985L11.0494 21.9875C11.078 21.8696 11.0763 21.7463 11.0445 21.6292C11.0127 21.512 10.9517 21.4048 10.8674 21.3175L7.78138 18.1815L16.9194 8.88954L18.4854 10.4825C18.7284 10.7275 19.1384 10.7525 19.4094 10.5325L20.3724 9.77754C21.0043 9.60578 21.6705 9.60461 22.3031 9.77412C22.9357 9.94364 23.512 10.2778 23.9734 10.7425L29.9064 16.7785L29.6104 17.0165C29.1979 17.405 28.8916 17.8924 28.7204 18.4325L28.5964 18.8225L28.2414 18.6285C27.6643 18.3124 27.0053 18.1776 26.3504 18.2415C24.6644 18.4655 23.4014 19.9485 23.4214 21.6885V32.9035L23.1544 32.9595C21.2344 33.3625 19.7594 34.8895 19.3954 36.8455ZM5.61138 18.3975L2.47938 15.2105L14.8634 2.61554L17.9964 5.80054L5.61138 18.3975ZM56.9504 19.0515C57.0415 19.0517 57.1317 19.0337 57.2158 18.9987C57.3 18.9637 57.3763 18.9123 57.4404 18.8475L61.6014 14.6655C61.8614 14.4055 61.8754 13.9855 61.6414 13.7075L61.5914 13.6535L49.2674 1.12154C49.2051 1.05699 49.1306 1.00552 49.0481 0.970147C48.9657 0.934774 48.8771 0.916208 48.7874 0.915536C48.6907 0.915051 48.595 0.934719 48.5063 0.973286C48.4176 1.01185 48.338 1.06847 48.2724 1.13954L44.4524 5.32154C44.3314 5.45509 44.2653 5.62933 44.2672 5.80949C44.269 5.98966 44.3387 6.1625 44.4624 6.29354L44.9824 6.83654L43.0994 8.75254L40.5184 8.09754C38.5294 7.60254 36.3164 8.23754 34.8724 9.73054L30.2844 15.1725L24.9504 9.74654C24.2885 9.0722 23.4503 8.59752 22.5316 8.37667C21.6128 8.15583 20.6505 8.19771 19.7544 8.49754C19.6752 8.52459 19.6016 8.56594 19.5374 8.61954L19.0254 9.03954L17.8974 7.89354L19.4634 6.30054C19.5942 6.16753 19.6668 5.98806 19.6654 5.80154C19.6663 5.70976 19.6492 5.61871 19.6148 5.53359C19.5805 5.44847 19.5297 5.37097 19.4654 5.30554L15.3524 1.12154C15.2214 0.993411 15.0454 0.921749 14.8622 0.921936C14.679 0.922123 14.5031 0.994144 14.3724 1.12254L1.00938 14.7135C0.8797 14.8467 0.807129 15.0252 0.807129 15.211C0.807129 15.3969 0.8797 15.5754 1.00938 15.7085L5.12338 19.8905C5.25397 20.0181 5.4293 20.0896 5.61188 20.0896C5.79446 20.0896 5.96979 20.0181 6.10038 19.8905L6.80238 19.1765L9.61038 22.0325L8.96538 24.6555C8.47438 26.6785 9.06338 28.8555 10.5054 30.3365L19.3094 39.5485V47.8595C19.3143 48.7126 19.5501 49.5485 19.9919 50.2783C20.4336 51.0081 21.0648 51.6046 21.8184 52.0045C22.3061 52.2706 22.7127 52.6638 22.995 53.1423C23.2772 53.6209 23.4246 54.167 23.4214 54.7225V55.2805H22.0594C21.9679 55.2812 21.8773 55.2999 21.793 55.3355C21.7087 55.3711 21.6322 55.423 21.568 55.4882C21.5037 55.5534 21.4529 55.6306 21.4185 55.7154C21.3841 55.8002 21.3667 55.891 21.3674 55.9825V61.2125C21.3674 61.3995 21.4374 61.5765 21.5684 61.7095C21.6319 61.7749 21.708 61.8268 21.792 61.8622C21.876 61.8976 21.9662 61.9157 22.0574 61.9155H41.5894C41.681 61.9149 41.7716 61.8962 41.856 61.8605C41.9403 61.8248 42.0169 61.7728 42.0811 61.7075C42.1454 61.6422 42.1962 61.5649 42.2305 61.48C42.2649 61.395 42.2822 61.3042 42.2814 61.2125V55.9835C42.2827 55.7986 42.2106 55.6207 42.0808 55.4889C41.9511 55.357 41.7743 55.2821 41.5894 55.2805H40.2264V53.7405L41.9624 52.1105C42.6979 51.5416 43.2942 50.8126 43.7059 49.9788C44.1176 49.145 44.3339 48.2284 44.3384 47.2985V34.7505L44.6344 34.7135C45.7796 34.5713 46.8417 34.0417 47.6444 33.2125L53.0704 27.2195C53.6535 26.6247 54.062 25.8811 54.2512 25.0698C54.4404 24.2586 54.4031 23.411 54.1434 22.6195C53.8934 21.8525 55.0684 19.9645 55.9834 18.8695L56.2184 18.5895L56.4754 18.8475C56.6034 18.9765 56.7714 19.0485 56.9504 19.0515Z" fill="white"/>
</svg>
