<svg width="62" height="62" viewBox="0 0 62 62" fill="none" xmlns="http://www.w3.org/2000/svg">
<g id="Frame">
<g id="Group">
<path id="Vector" fill-rule="evenodd" clip-rule="evenodd" d="M46.7742 10.0705L53.3392 11.7045C53.4473 11.7278 53.5596 11.7216 53.6645 11.6866C53.7693 11.6516 53.8628 11.589 53.9352 11.5055C54.0059 11.4203 54.0508 11.3169 54.065 11.2071C54.0792 11.0974 54.0619 10.9859 54.0152 10.8855L51.1512 4.76553C51.0825 4.62639 50.9627 4.51917 50.8168 4.46626C50.6709 4.41334 50.5102 4.41881 50.3682 4.48153C50.2274 4.54814 50.1185 4.6676 50.0651 4.81399C50.0118 4.96038 50.0183 5.1219 50.0832 5.26353L51.8672 9.06553L50.7542 8.12553C45.2492 3.47753 38.2272 0.915527 30.9782 0.915527C22.7872 0.915527 15.0842 4.10053 9.29025 9.88153C4.28395 14.8821 1.16233 21.461 0.455248 28.5015C-0.228752 35.4235 1.47525 42.4235 5.25325 48.2145C5.42325 48.4765 5.80925 48.5545 6.06325 48.3855C6.19457 48.3007 6.28687 48.1673 6.31987 48.0144C6.35287 47.8616 6.32387 47.702 6.23925 47.5705C2.60525 42.0005 0.968248 35.2685 1.62725 28.6185C2.30747 21.8491 5.3085 15.5234 10.1212 10.7145C15.6942 5.15353 23.1012 2.09053 30.9782 2.09053C37.9562 2.09053 44.7152 4.56053 50.0122 9.04053L51.0522 9.92253L47.0602 8.93053C46.9088 8.89451 46.7493 8.91896 46.6156 8.9987C46.4819 9.07843 46.3845 9.20716 46.3442 9.35753C46.3071 9.50908 46.3314 9.66919 46.412 9.80282C46.4926 9.93645 46.6229 10.0327 46.7742 10.0705Z" fill="black"/>
<g id="Group_2">
<path id="Vector_2" fill-rule="evenodd" clip-rule="evenodd" d="M56.2553 14.4204C56.1692 14.292 56.0365 14.2022 55.8854 14.1699C55.7342 14.1376 55.5763 14.1654 55.4453 14.2474C55.315 14.3339 55.224 14.4684 55.1922 14.6215C55.1604 14.7747 55.1902 14.9342 55.2753 15.0654C58.8883 20.6564 60.5163 27.4154 59.8613 34.0964C59.1915 40.8813 56.2078 47.2292 51.4113 52.0744C45.8723 57.6594 38.5073 60.7354 30.6713 60.7354C23.7313 60.7354 17.0093 58.2554 11.7393 53.7554L10.7043 52.8704L14.6773 53.8684C14.8254 53.8953 14.9782 53.8648 15.1046 53.783C15.231 53.7012 15.3215 53.5744 15.3577 53.4282C15.3938 53.2821 15.373 53.1277 15.2994 52.9964C15.2257 52.8651 15.1049 52.7668 14.9613 52.7214L8.43031 51.0824C8.32231 51.0572 8.20939 51.0628 8.10442 51.0986C7.99945 51.1345 7.90666 51.199 7.83661 51.285C7.76657 51.371 7.72209 51.475 7.70824 51.585C7.6944 51.6951 7.71175 51.8068 7.75831 51.9074L10.6083 58.0504C10.7413 58.3364 11.1083 58.4674 11.3833 58.3354C11.5248 58.2678 11.634 58.1473 11.6873 57.9998C11.7406 57.8524 11.7338 57.6899 11.6683 57.5474L9.89431 53.7274L11.0013 54.6734C16.4893 59.348 23.4624 61.9156 30.6713 61.9164C38.8203 61.9164 46.4803 58.7184 52.2413 52.9114C57.2282 47.8708 60.3303 41.2687 61.0273 34.2124C61.7093 27.2654 60.0143 20.2374 56.2553 14.4204Z" fill="black"/>
</g>
<path id="Vector_3" fill-rule="evenodd" clip-rule="evenodd" d="M27.5724 48.7235L30.8734 33.8435C30.8916 33.7589 30.8906 33.6712 30.8706 33.587C30.8507 33.5027 30.8122 33.424 30.758 33.3565C30.7038 33.289 30.6352 33.2344 30.5573 33.1967C30.4794 33.159 30.394 33.1391 30.3074 33.1385L18.6494 32.8845L34.0404 14.1085L30.7404 28.9885C30.7222 29.0724 30.7229 29.1594 30.7427 29.2429C30.7624 29.3265 30.8006 29.4046 30.8544 29.4715C30.9644 29.6075 31.1274 29.6875 31.3044 29.6915L42.9664 29.9475L27.5724 48.7235ZM44.7074 29.1495C44.6608 29.0507 44.5873 28.967 44.4953 28.9079C44.4034 28.8489 44.2967 28.8168 44.1874 28.8155L32.0444 28.5485L35.7244 11.9585C35.7532 11.8302 35.7368 11.696 35.6782 11.5783C35.6196 11.4606 35.5222 11.3668 35.4024 11.3125C35.2826 11.256 35.1473 11.2411 35.018 11.27C34.8887 11.299 34.7727 11.3703 34.6884 11.4725L16.9784 33.0725C16.91 33.1565 16.8667 33.2582 16.8536 33.3658C16.8405 33.4734 16.8581 33.5825 16.9044 33.6805C16.9524 33.7788 17.0265 33.862 17.1185 33.9211C17.2106 33.9802 17.3171 34.0128 17.4264 34.0155L29.5654 34.2835L25.8884 50.8735C25.8596 51.0019 25.8759 51.1363 25.9346 51.2542C25.9932 51.372 26.0906 51.466 26.2104 51.5205C26.3303 51.5761 26.4652 51.5905 26.5941 51.5616C26.723 51.5326 26.8388 51.462 26.9234 51.3605L44.6334 29.7595C44.7028 29.6755 44.7466 29.5734 44.7597 29.4653C44.7728 29.3572 44.7547 29.2476 44.7074 29.1495Z" fill="black"/>
</g>
</g>
</svg>
