<svg width="62" height="62" viewBox="0 0 62 62" fill="none" xmlns="http://www.w3.org/2000/svg">
<g id="Frame">
<g id="Group">
<path id="Vector" fill-rule="evenodd" clip-rule="evenodd" d="M57.3314 37.4145C58.0764 37.4145 58.6824 38.0125 58.6824 38.7445C58.6824 39.4765 58.0764 40.0735 57.3314 40.0735C56.5854 40.0735 55.9804 39.4765 55.9804 38.7435C55.9804 38.0125 56.5864 37.4145 57.3314 37.4145ZM37.5274 5.31754C37.5274 4.58454 38.1344 3.98754 38.8794 3.98754C39.6234 3.98754 40.2294 4.58454 40.2294 5.31754C40.2294 6.05054 39.6234 6.64554 38.8794 6.64554C38.5241 6.64847 38.1821 6.51026 37.9286 6.26126C37.6751 6.01227 37.5308 5.67285 37.5274 5.31754ZM15.5554 4.34754C15.301 4.59837 14.9576 4.73824 14.6004 4.73654C14.2384 4.73654 13.9004 4.59854 13.6434 4.34654C13.5181 4.22421 13.4185 4.078 13.3507 3.91654C13.2828 3.75509 13.248 3.58167 13.2484 3.40654C13.2484 3.05054 13.3884 2.71754 13.6434 2.46754C14.1534 1.96654 15.0464 1.96654 15.5554 2.46754C15.6804 2.59007 15.7798 2.73632 15.8476 2.89773C15.9154 3.05914 15.9504 3.23246 15.9504 3.40754C15.9504 3.58262 15.9154 3.75593 15.8476 3.91734C15.7798 4.07875 15.6804 4.225 15.5554 4.34754ZM58.3174 13.9275C58.8274 13.4275 59.7194 13.4255 60.2274 13.9295C60.3529 14.0516 60.4526 14.1976 60.5207 14.3589C60.5888 14.5202 60.6239 14.6935 60.6239 14.8685C60.6239 15.0436 60.5888 15.2169 60.5207 15.3782C60.4526 15.5395 60.3529 15.6855 60.2274 15.8075C59.9734 16.0575 59.6354 16.1975 59.2724 16.1975C58.9124 16.1975 58.5734 16.0575 58.3174 15.8065C58.1918 15.6844 58.0921 15.5382 58.0242 15.3767C57.9563 15.2152 57.9217 15.0417 57.9224 14.8665C57.9224 14.5135 58.0624 14.1785 58.3174 13.9275ZM61.2164 30.5225H46.2664V27.8645H50.5324C50.6876 27.8653 50.8369 27.8047 50.9476 27.6959C51.0584 27.587 51.1215 27.4388 51.1234 27.2835C51.1218 27.1281 51.0587 26.9796 50.948 26.8706C50.8372 26.7615 50.6878 26.7007 50.5324 26.7015H46.2674V24.0455H49.3274C50.2624 24.0455 51.1444 23.6855 51.8044 23.0355L57.9404 17.0005L58.1464 17.0995C59.1054 17.5695 60.3084 17.3765 61.0644 16.6295C61.5444 16.1595 61.8074 15.5335 61.8074 14.8685C61.8079 14.5402 61.7423 14.2151 61.6147 13.9126C61.4871 13.6101 61.2999 13.3363 61.0644 13.1075C60.1084 12.1675 58.4414 12.1655 57.4824 13.1075C57.247 13.3362 57.0599 13.6098 56.9323 13.9121C56.8046 14.2145 56.739 14.5394 56.7394 14.8675C56.7394 15.2555 56.8294 15.6295 57.0044 15.9775L57.1044 16.1785L50.9684 22.2145C50.5308 22.6456 49.9406 22.8861 49.3264 22.8835H46.2664V20.5985C46.2664 18.1725 44.2604 16.1985 41.7914 16.1985H39.4694V7.74954L39.6854 7.67754C40.1848 7.51575 40.6204 7.20057 40.9303 6.77685C41.2402 6.35313 41.4085 5.84247 41.4114 5.31754C41.4114 3.94254 40.2764 2.82554 38.8794 2.82554C37.4834 2.82554 36.3464 3.94254 36.3464 5.31654C36.3464 6.38654 37.0394 7.33554 38.0704 7.67754L38.2874 7.74954V16.1955H35.5844V12.0025C35.5828 11.8473 35.5199 11.699 35.4093 11.5899C35.2988 11.4809 35.1496 11.42 34.9944 11.4205C34.839 11.4197 34.6897 11.4805 34.5791 11.5896C34.4685 11.6987 34.4057 11.8472 34.4044 12.0025V16.1955H31.7004V1.49654C31.6985 1.34128 31.6354 1.19306 31.5246 1.08422C31.4139 0.975369 31.2646 0.914732 31.1094 0.915535C30.954 0.914736 30.8047 0.975542 30.6941 1.08463C30.5835 1.19372 30.5207 1.3422 30.5194 1.49754V16.1975H27.8154V12.0035C27.8141 11.8482 27.7512 11.6997 27.6406 11.5906C27.53 11.4815 27.3807 11.4207 27.2254 11.4215C27.0698 11.4205 26.9201 11.4811 26.8091 11.5902C26.6982 11.6993 26.635 11.8479 26.6334 12.0035V16.1965H23.9304V13.1885C23.9304 12.2685 23.5654 11.4035 22.9044 10.7525L16.7654 4.71554L16.8674 4.51454C17.1032 4.04772 17.184 3.5179 17.0983 3.00199C17.0125 2.48609 16.7645 2.01095 16.3904 1.64554C15.4384 0.706535 13.7654 0.706535 12.8084 1.64554C12.5743 1.87528 12.3883 2.14939 12.2613 2.45184C12.1344 2.7543 12.069 3.07902 12.069 3.40704C12.069 3.73505 12.1344 4.05977 12.2613 4.36223C12.3883 4.66468 12.5743 4.93879 12.8084 5.16854C13.5594 5.90654 14.7644 6.10554 15.7244 5.63654L15.9294 5.53654L22.0694 11.5745C22.5074 12.0055 22.7504 12.5795 22.7504 13.1885V16.1965H20.4254C20.0494 16.1965 19.6724 16.2445 19.3094 16.3365C19.2343 16.3544 19.1635 16.387 19.1012 16.4325C19.0389 16.478 18.9863 16.5355 18.9464 16.6015C18.9066 16.6672 18.8806 16.7402 18.87 16.8162C18.8593 16.8921 18.8642 16.9695 18.8844 17.0435C18.9634 17.3475 19.2844 17.5415 19.6014 17.4615C19.8708 17.3938 20.1475 17.3592 20.4254 17.3585H41.7914C43.6094 17.3585 45.0864 18.8115 45.0864 20.5985V41.6085C45.0864 41.8805 45.0524 42.1535 44.9824 42.4185C44.9637 42.4926 44.9598 42.5696 44.9709 42.6452C44.9821 42.7208 45.0081 42.7934 45.0474 42.8589C45.0867 42.9244 45.1385 42.9815 45.2 43.0269C45.2614 43.0724 45.3312 43.1052 45.4054 43.1235C45.7394 43.2145 46.0474 43.0125 46.1274 42.7055C46.2204 42.3535 46.2674 41.9825 46.2674 41.6095V39.3245H54.8584L54.9314 39.5365C55.1044 40.0347 55.4287 40.4663 55.859 40.7711C56.2893 41.0759 56.8041 41.2386 57.3314 41.2365C58.7274 41.2365 59.8634 40.1185 59.8634 38.7435C59.8634 37.3705 58.7274 36.2535 57.3314 36.2535C56.8045 36.251 56.29 36.4131 55.8598 36.7172C55.4295 37.0212 55.1049 37.4521 54.9314 37.9495L54.8584 38.1625H46.2674V35.5045H50.5324C50.6876 35.5053 50.8369 35.4447 50.9476 35.3359C51.0584 35.227 51.1215 35.0788 51.1234 34.9235C51.1218 34.7681 51.0587 34.6196 50.948 34.5106C50.8372 34.4015 50.6878 34.3407 50.5324 34.3415H46.2674V31.6855H61.2164C61.3715 31.6863 61.5206 31.6258 61.6313 31.5172C61.742 31.4086 61.8053 31.2606 61.8074 31.1055C61.8058 30.9501 61.7427 30.8016 61.632 30.6926C61.5212 30.5835 61.3718 30.5217 61.2164 30.5225ZM48.0624 60.3305C47.9406 60.4561 47.7949 60.5559 47.6339 60.624C47.4728 60.6922 47.2998 60.7273 47.1249 60.7273C46.95 60.7273 46.7769 60.6922 46.6159 60.624C46.4548 60.5559 46.3091 60.4561 46.1874 60.3305C45.9371 60.0739 45.7977 59.7291 45.7994 59.3705C45.7994 59.0065 45.9364 58.6655 46.1874 58.4085C46.4369 58.162 46.7734 58.0237 47.1242 58.0236C47.4749 58.0234 47.8116 58.1613 48.0614 58.4075C48.5784 58.9375 48.5784 59.8005 48.0624 60.3305ZM24.6294 57.4155C24.6294 58.1655 24.0334 58.7745 23.3024 58.7745C22.5704 58.7745 21.9774 58.1645 21.9774 57.4145C21.9774 56.6665 22.5704 56.0565 23.3024 56.0565C24.0324 56.0565 24.6294 56.6665 24.6294 57.4155ZM4.22938 48.6125C4.10785 48.7384 3.96221 48.8386 3.80114 48.907C3.64007 48.9754 3.46687 49.0106 3.29188 49.0106C3.11689 49.0106 2.9437 48.9754 2.78263 48.907C2.62156 48.8386 2.47591 48.7384 2.35438 48.6125C2.10325 48.3564 1.96375 48.0112 1.96638 47.6525C1.96638 47.2885 2.10338 46.9455 2.35638 46.6895C2.85138 46.1785 3.73238 46.1755 4.23138 46.6925C4.48138 46.9485 4.61938 47.2895 4.61938 47.6525C4.61938 48.0145 4.48038 48.3555 4.22938 48.6125ZM5.19838 24.6025C4.46838 24.6025 3.87238 23.9925 3.87238 23.2425C3.87238 22.4935 4.46838 21.8835 5.19838 21.8835C5.92938 21.8835 6.52438 22.4935 6.52438 23.2435C6.52438 23.9925 5.92938 24.6025 5.19838 24.6025ZM48.8814 57.5675C48.5141 57.1994 48.0409 56.9554 47.5281 56.8697C47.0152 56.784 46.4884 56.8609 46.0214 57.0895L45.8204 57.1915L39.7964 51.0185C39.366 50.5774 39.1261 49.9849 39.1284 49.3685V46.2925H41.4074C41.7794 46.2925 42.1474 46.2445 42.5054 46.1505C42.6557 46.1084 42.7836 46.009 42.8614 45.8736C42.9392 45.7382 42.9607 45.5777 42.9214 45.4265C42.8826 45.2772 42.7869 45.1489 42.6548 45.0693C42.5226 44.9897 42.3645 44.965 42.2144 45.0005C41.951 45.0699 41.6798 45.1052 41.4074 45.1055H20.4434C18.6634 45.1055 17.2114 43.6205 17.2114 41.7945V20.3155C17.2114 20.0355 17.2464 19.7575 17.3144 19.4875C17.3534 19.3362 17.3316 19.1755 17.2537 19.04C17.1758 18.9045 17.0479 18.8049 16.8974 18.7625C16.7474 18.7279 16.5898 18.7531 16.4582 18.8329C16.3265 18.9126 16.2311 19.0406 16.1924 19.1895C16.0998 19.5574 16.0531 19.9352 16.0534 20.3145V22.6495H7.62538L7.55238 22.4325C7.21238 21.3935 6.26538 20.6955 5.19838 20.6955C3.82838 20.6955 2.71238 21.8385 2.71238 23.2435C2.71238 24.6475 3.82838 25.7895 5.19838 25.7895C6.26638 25.7895 7.21238 25.0925 7.55238 24.0545L7.62538 23.8375H16.0534V26.5555H11.8684C11.5494 26.5555 11.2884 26.8225 11.2884 27.1495C11.2884 27.4775 11.5494 27.7435 11.8684 27.7435H16.0534V30.4615H1.38738C1.23204 30.4636 1.08388 30.5272 0.97535 30.6384C0.86682 30.7496 0.806779 30.8992 0.808381 31.0545C0.808381 31.3815 1.06838 31.6475 1.38738 31.6475H16.0544V34.3655H11.8694C11.5504 34.3655 11.2894 34.6315 11.2894 34.9595C11.2894 35.2865 11.5504 35.5535 11.8694 35.5535H16.0544V38.2715H13.0524C12.5987 38.2713 12.1496 38.3626 11.732 38.5401C11.3144 38.7176 10.937 38.9776 10.6224 39.3045L4.60238 45.4745L4.40038 45.3715C3.46838 44.8955 2.28238 45.0905 1.53738 45.8535C1.06738 46.3335 0.808381 46.9735 0.808381 47.6535C0.808381 48.3325 1.06638 48.9715 1.53738 49.4535C2.47438 50.4135 4.10838 50.4165 5.05038 49.4535C5.52038 48.9715 5.77838 48.3325 5.77838 47.6535C5.77838 47.2545 5.69238 46.8735 5.52038 46.5195L5.42038 46.3135L11.4414 40.1435C11.6501 39.9271 11.9004 39.755 12.1772 39.6374C12.454 39.5199 12.7517 39.4594 13.0524 39.4595H16.0544V41.7955C16.0544 44.2755 18.0244 46.2935 20.4444 46.2935H22.7244V54.9295L22.5124 55.0035C21.4984 55.3535 20.8174 56.3235 20.8174 57.4165C20.8174 58.8205 21.9334 59.9635 23.3034 59.9635C24.6744 59.9635 25.7884 58.8205 25.7884 57.4165C25.7884 56.3215 25.1094 55.3525 24.0964 55.0035L23.8844 54.9295V46.2935H26.5344V50.5815C26.5344 50.9085 26.7954 51.1755 27.1164 51.1755C27.4364 51.1755 27.6954 50.9085 27.6954 50.5815V46.2935H30.3484V61.3225C30.3484 61.6495 30.6084 61.9155 30.9264 61.9155C31.0819 61.9137 31.2303 61.8502 31.3391 61.739C31.4478 61.6278 31.508 61.478 31.5064 61.3225V46.2925H34.1584V50.5815C34.1584 50.9085 34.4184 51.1755 34.7384 51.1755C35.0574 51.1755 35.3184 50.9085 35.3184 50.5815V46.2935H37.9684V49.3695C37.9647 50.3 38.3276 51.1945 38.9784 51.8595L45.0014 58.0325L44.9014 58.2385C44.6691 58.7158 44.5893 59.253 44.6729 59.7772C44.7564 60.3013 44.9993 60.7871 45.3684 61.1685C46.3064 62.1315 47.9464 62.1285 48.8824 61.1685C49.3514 60.6885 49.6084 60.0505 49.6084 59.3685C49.6084 58.6885 49.3504 58.0485 48.8824 57.5685" fill="white"/>
<path id="Vector_2" fill-rule="evenodd" clip-rule="evenodd" d="M36.8204 36.4455C36.3874 35.6435 35.6394 35.0415 34.7144 34.7495C34.5713 34.7058 34.4167 34.7201 34.2841 34.7893C34.1514 34.8585 34.0513 34.9771 34.0054 35.1195C33.9825 35.1903 33.974 35.2649 33.9802 35.339C33.9865 35.4131 34.0075 35.4852 34.0419 35.5511C34.0764 35.617 34.1236 35.6754 34.1808 35.7229C34.2381 35.7703 34.3042 35.8059 34.3754 35.8275C35.3874 36.1475 36.0674 36.9875 36.0674 37.9175C36.0674 39.1425 34.9164 40.1375 33.5004 40.1375C32.0844 40.1375 30.9324 39.1425 30.9324 37.9175V32.3435C30.9324 31.1195 32.0844 30.1235 33.5004 30.1235C33.642 30.1116 33.774 30.0469 33.8702 29.9423C33.9664 29.8376 34.0198 29.7007 34.0198 29.5585C34.0198 29.4164 33.9664 29.2794 33.8702 29.1748C33.774 29.0701 33.642 29.0055 33.5004 28.9935C32.7444 28.9935 32.0174 29.1995 31.3994 29.5895L30.9324 29.8845V28.2225C30.9318 28.0728 30.8721 27.9294 30.7663 27.8236C30.6605 27.7177 30.5171 27.6581 30.3674 27.6575C30.2179 27.6583 30.0749 27.7182 29.9694 27.824C29.864 27.9298 29.8046 28.0731 29.8044 28.2225V33.5985L29.3384 33.3045C29.0602 33.13 28.7612 32.9913 28.4484 32.8915C28.3053 32.8508 28.152 32.8665 28.0203 32.9356C27.8885 33.0046 27.7883 33.1217 27.7404 33.2625C27.6968 33.4057 27.7114 33.5604 27.781 33.6929C27.8506 33.8254 27.9697 33.9252 28.1124 33.9705C29.1234 34.2895 29.8044 35.1285 29.8044 36.0605V37.9155C29.8044 39.1415 28.6524 40.1375 27.2364 40.1375C25.8204 40.1375 24.6684 39.1415 24.6684 37.9155C24.6684 37.3815 24.8934 36.8645 25.3004 36.4595C25.4058 36.3531 25.465 36.2095 25.4652 36.0597C25.4654 35.91 25.4065 35.7662 25.3014 35.6595C25.1932 35.5575 25.0501 35.5007 24.9014 35.5007C24.7527 35.5007 24.6096 35.5575 24.5014 35.6595C24.3114 35.8515 24.1454 36.0595 24.0114 36.2755L23.8154 36.5955L23.5434 36.3375C22.9234 35.7495 22.5814 34.9905 22.5814 34.2005C22.5814 32.7705 23.6874 31.5175 25.2714 31.1535C25.3437 31.1376 25.412 31.1072 25.4723 31.0643C25.5326 31.0213 25.5837 30.9666 25.6224 30.9035C25.6625 30.8409 25.6896 30.7708 25.7022 30.6974C25.7147 30.6241 25.7124 30.549 25.6954 30.4765C25.6606 30.3319 25.5706 30.2067 25.4446 30.1276C25.3186 30.0485 25.1667 30.022 25.0214 30.0535C24.4901 30.1734 23.9823 30.3802 23.5184 30.6655L23.2884 30.8055L23.1204 30.5955C22.7746 30.1706 22.5841 29.6404 22.5804 29.0925C22.5804 27.6235 23.9564 26.4185 25.6474 26.4065C25.7894 26.4124 25.9285 26.3649 26.0374 26.2735C26.1397 26.1859 26.2073 26.0646 26.2282 25.9315C26.2491 25.7985 26.2219 25.6623 26.1514 25.5475L26.0954 25.4675C25.8524 25.1828 25.7172 24.8218 25.7134 24.4475C25.7134 23.4795 26.6314 22.6915 27.7584 22.6915C28.8884 22.6915 29.8054 23.4795 29.8054 24.4475C29.8054 24.7605 30.0574 25.0145 30.3674 25.0145C30.5174 25.014 30.6611 24.954 30.767 24.8477C30.8729 24.7415 30.9324 24.5976 30.9324 24.4475C30.9324 23.4795 31.8504 22.6915 32.9774 22.6915C34.1074 22.6915 35.0224 23.4795 35.0224 24.4475C35.0224 24.6835 34.9694 24.9135 34.8614 25.1315L34.7864 25.2815L34.6184 25.2985C34.1584 25.3405 33.7084 25.4535 33.2824 25.6325C33.1449 25.6914 33.0362 25.8022 32.98 25.9408C32.9238 26.0794 32.9247 26.2345 32.9824 26.3725C33.0425 26.509 33.1533 26.6167 33.2914 26.6729C33.4295 26.7291 33.5841 26.7293 33.7224 26.6735C34.1388 26.499 34.5858 26.4089 35.0374 26.4085C36.7814 26.4185 38.1574 27.6235 38.1574 29.0925C38.1574 30.0295 37.5974 30.8845 36.6564 31.3795C36.5658 31.4276 36.49 31.4995 36.4371 31.5874C36.3843 31.6753 36.3564 31.776 36.3564 31.8785C36.3564 31.9811 36.3843 32.0817 36.4371 32.1696C36.49 32.2576 36.5658 32.3294 36.6564 32.3775C37.5964 32.8735 38.1564 33.7285 38.1564 34.6645C38.1564 35.3545 37.8494 36.0145 37.2924 36.5245L37.0034 36.7865L36.8204 36.4455ZM37.1994 37.9605L37.3394 37.8805C38.5394 37.1815 39.2844 35.9505 39.2844 34.6655C39.2844 33.7165 38.8884 32.8045 38.1674 32.0965L37.9474 31.8805L38.1674 31.6625C38.8874 30.9545 39.2844 30.0425 39.2844 29.0935C39.2844 27.4275 38.0534 25.9265 36.2894 25.4435L36.0044 25.3635L36.0744 25.0765C36.126 24.8718 36.1525 24.6616 36.1534 24.4505C36.1534 22.8585 34.7284 21.5615 32.9794 21.5615C32.0644 21.5615 31.1914 21.9245 30.5874 22.5545L30.3674 22.7845L30.1494 22.5545C29.5454 21.9245 28.6734 21.5615 27.7594 21.5615C26.0094 21.5615 24.5854 22.8585 24.5854 24.4505C24.5854 24.6545 24.6104 24.8665 24.6614 25.0775L24.7314 25.3635L24.4464 25.4435C22.6834 25.9265 21.4534 27.4285 21.4534 29.0935C21.4534 29.9255 21.7454 30.7135 22.2954 31.3705L22.4524 31.5575L22.3044 31.7515C21.7566 32.451 21.4575 33.3131 21.4544 34.2015C21.4544 35.5625 22.1824 36.8555 23.4044 37.6615L23.5404 37.7515V37.9155C23.5404 39.7655 25.1984 41.2695 27.2364 41.2695C28.3724 41.2695 29.4294 40.8015 30.1394 39.9865L30.3674 39.7225L30.5974 39.9865C31.3074 40.8015 32.3654 41.2695 33.5014 41.2695C35.4514 41.2695 37.0714 39.8865 37.1894 38.1215L37.1994 37.9605Z" fill="white"/>
</g>
</g>
</svg>
